<?xml version="1.0" encoding="UTF-8"?>
<svg width="32px" height="32px" viewBox="0 0 32 32" version="1.1" xmlns="http://www.w3.org/2000/svg" xmlns:xlink="http://www.w3.org/1999/xlink">
    <title>mail</title>
    <g id="Page-1" stroke="none" stroke-width="1" fill="none" fill-rule="evenodd">
        <g id="contact" transform="translate(-261, -726)">
            <g id="Group" transform="translate(245, 268)">
                <g id="mail" transform="translate(16, 458)">
                    <rect id="bb" x="0" y="0" width="32" height="32"></rect>
                    <g id="Group-2" transform="translate(6, 8)" stroke="#4F4F4F" stroke-width="2">
                        <path d="M19.8042827,3.85476309 C19.0704294,4.26245891 17.9696495,4.87400264 16.5019429,5.68939429 C14.2331429,6.94982857 13.0987429,7.58011429 11.8973714,7.8272 C10.8340571,8.04582857 9.73737143,8.04582857 8.67405714,7.8272 C7.47273143,7.58011429 6.33832,6.94982857 4.06948571,5.68939429 C2.5873828,4.8660047 1.47580562,4.24846252 0.734754164,3.83676773" id="Path"></path>
                        <path d="M17.9699759,1.00071282 C18.3658662,1.00363989 18.6420037,1.02424636 18.8694276,1.14013261 C19.1113016,1.26337715 19.3080102,1.4600216 19.4312917,1.70203786 C19.6334819,2.09883149 19.5714286,2.63423532 19.5714286,3.65713459 L19.5719403,12.7988105 C19.5763875,13.5374054 19.5997633,13.9673787 19.4312462,14.2980742 C19.3080354,14.5399324 19.111361,14.7366069 18.8693967,14.8598717 C18.4726242,15.0620606 17.9371841,15 16.9142857,15 L3.42958053,15.000953 C2.5526772,15.0079827 2.06829983,15.0464956 1.70191991,14.859803 C1.4600216,14.7365816 1.26337715,14.539873 1.1401253,14.2979847 C1.02424417,14.0705708 1.00363923,13.7944363 1.00071532,13.3999055 L1.00071462,2.60145384 C1.0036443,2.20556872 1.02425588,1.92943969 1.14014725,1.7019951 C1.26340241,1.46008098 1.46008098,1.26340241 1.70202133,1.14013389 C1.92944769,1.02425181 2.20557456,1.00364306 2.60010018,1.00071693 Z" id="Path"></path>
                    </g>
                </g>
            </g>
        </g>
    </g>
</svg>